<svg xmlns="http://www.w3.org/2000/svg" viewBox="0 0 480.35 480.35"><path fill="current" d="M308.579 10.01a240.17 239.995 0 01131.902 97.672 65.32 65.273 0 017.846 24.96v-84.32h32.023v128H352.257v-32h72.372C388.775 75.397 317.906 31.75 240.175 30.722c-92.182 1.07-172.982 61.854-199.505 150.08l-30.743-9.12C47.721 44.627 181.431-27.755 308.58 10.01zM128.093 304.323v32H55.721c35.854 68.925 106.723 112.572 184.454 113.6 92.182-1.071 172.982-61.854 199.505-150.08l30.743 9.12c-37.956 127.006-171.76 199.218-298.858 161.29a240.173 239.998 0 01-134.418-101.93 44.03 43.998 0 01-5.124-20.32v84.32H0v-128z" fill='current' /></svg>